<svg width="16" height="16" viewBox="0 0 16 16" fill="none" xmlns="http://www.w3.org/2000/svg">
<g clip-path="url(#clip0_102_69)">
<g clip-path="url(#clip1_102_69)">
<path d="M0 1.6C0 0.716345 0.716344 0 1.6 0H14.4C15.2837 0 16 0.716344 16 1.6V14.4C16 15.2837 15.2837 16 14.4 16H1.6C0.716345 16 0 15.2837 0 14.4V1.6Z" fill="#3608A0"/>
<path fill-rule="evenodd" clip-rule="evenodd" d="M1.80005 4.8C1.80005 2.70132 3.50137 1 5.60005 1H10.4C12.4987 1 14.2 2.70132 14.2 4.8V11.2C14.2 13.2987 12.4987 15 10.4 15H5.60005C3.50137 15 1.80005 13.2987 1.80005 11.2V4.8ZM5.60005 2.2C4.16411 2.2 3.00005 3.36406 3.00005 4.8V11.2C3.00005 12.6359 4.16411 13.8 5.60005 13.8H10.4C11.836 13.8 13 12.6359 13 11.2V4.8C13 3.36406 11.836 2.2 10.4 2.2H5.60005Z" fill="white"/>
<path fill-rule="evenodd" clip-rule="evenodd" d="M4.20005 5.36C4.20005 4.36589 5.00594 3.56 6.00005 3.56H9.82405C10.8182 3.56 11.624 4.36589 11.624 5.36V5.52C11.624 6.51411 10.8182 7.32 9.82405 7.32H6.00005C5.00594 7.32 4.20005 6.51411 4.20005 5.52V5.36ZM6.00005 4.76C5.66868 4.76 5.40005 5.02863 5.40005 5.36V5.52C5.40005 5.85137 5.66868 6.12 6.00005 6.12H9.82405C10.1554 6.12 10.424 5.85137 10.424 5.52V5.36C10.424 5.02863 10.1554 4.76 9.82405 4.76H6.00005Z" fill="white"/>
<path d="M5.51116 9.28C5.8548 9.28 6.13338 8.99346 6.13338 8.64C6.13338 8.28654 5.8548 8 5.51116 8C5.16752 8 4.88894 8.28654 4.88894 8.64C4.88894 8.99346 5.16752 9.28 5.51116 9.28Z" fill="white"/>
<path d="M5.51116 11.84C5.8548 11.84 6.13338 11.5535 6.13338 11.2C6.13338 10.8465 5.8548 10.56 5.51116 10.56C5.16752 10.56 4.88894 10.8465 4.88894 11.2C4.88894 11.5535 5.16752 11.84 5.51116 11.84Z" fill="white"/>
<path d="M8.00005 9.28C8.34369 9.28 8.62227 8.99346 8.62227 8.64C8.62227 8.28654 8.34369 8 8.00005 8C7.6564 8 7.37783 8.28654 7.37783 8.64C7.37783 8.99346 7.6564 9.28 8.00005 9.28Z" fill="white"/>
<path d="M8.00005 11.84C8.34369 11.84 8.62227 11.5535 8.62227 11.2C8.62227 10.8465 8.34369 10.56 8.00005 10.56C7.6564 10.56 7.37783 10.8465 7.37783 11.2C7.37783 11.5535 7.6564 11.84 8.00005 11.84Z" fill="white"/>
<path d="M10.4889 9.28C10.8326 9.28 11.1112 8.99346 11.1112 8.64C11.1112 8.28654 10.8326 8 10.4889 8C10.1453 8 9.86671 8.28654 9.86671 8.64C9.86671 8.99346 10.1453 9.28 10.4889 9.28Z" fill="white"/>
<path d="M10.4889 11.84C10.8326 11.84 11.1112 11.5535 11.1112 11.2C11.1112 10.8465 10.8326 10.56 10.4889 10.56C10.1453 10.56 9.86671 10.8465 9.86671 11.2C9.86671 11.5535 10.1453 11.84 10.4889 11.84Z" fill="white"/>
</g>
</g>
<defs>
<clipPath id="clip0_102_69">
<rect width="16" height="16" fill="white"/>
</clipPath>
<clipPath id="clip1_102_69">
<rect width="16" height="16" fill="white"/>
</clipPath>
</defs>
</svg>
